<svg width="36" height="36" viewBox="0 0 36 36" fill="none" xmlns="http://www.w3.org/2000/svg">
<path d="M13 23.8333V24.6667C13 24.9028 12.9201 25.1007 12.7604 25.2604C12.6007 25.4201 12.4028 25.5 12.1667 25.5H11.3333C11.0972 25.5 10.8993 25.4201 10.7396 25.2604C10.5799 25.1007 10.5 24.9028 10.5 24.6667V18L12.25 13C12.3333 12.75 12.4826 12.5486 12.6979 12.3958C12.9132 12.2431 13.1528 12.1667 13.4167 12.1667H15.5V10.5H20.5V12.1667H22.5833C22.8472 12.1667 23.0868 12.2431 23.3021 12.3958C23.5174 12.5486 23.6667 12.75 23.75 13L25.5 18V24.6667C25.5 24.9028 25.4201 25.1007 25.2604 25.2604C25.1007 25.4201 24.9028 25.5 24.6667 25.5H23.8333C23.5972 25.5 23.3993 25.4201 23.2396 25.2604C23.0799 25.1007 23 24.9028 23 24.6667V23.8333H13ZM12.8333 16.3333H23.1667L22.2917 13.8333H13.7083L12.8333 16.3333ZM14.25 21.3333C14.5972 21.3333 14.8924 21.2118 15.1354 20.9687C15.3785 20.7257 15.5 20.4306 15.5 20.0833C15.5 19.7361 15.3785 19.441 15.1354 19.1979C14.8924 18.9549 14.5972 18.8333 14.25 18.8333C13.9028 18.8333 13.6076 18.9549 13.3646 19.1979C13.1215 19.441 13 19.7361 13 20.0833C13 20.4306 13.1215 20.7257 13.3646 20.9687C13.6076 21.2118 13.9028 21.3333 14.25 21.3333ZM21.75 21.3333C22.0972 21.3333 22.3924 21.2118 22.6354 20.9687C22.8785 20.7257 23 20.4306 23 20.0833C23 19.7361 22.8785 19.441 22.6354 19.1979C22.3924 18.9549 22.0972 18.8333 21.75 18.8333C21.4028 18.8333 21.1076 18.9549 20.8646 19.1979C20.6215 19.441 20.5 19.7361 20.5 20.0833C20.5 20.4306 20.6215 20.7257 20.8646 20.9687C21.1076 21.2118 21.4028 21.3333 21.75 21.3333ZM12.1667 22.1667H23.8333V18H12.1667V22.1667Z" fill="#B8B8C4"/>
</svg>
