<svg width="36" height="36" viewBox="0 0 36 36" fill="none" xmlns="http://www.w3.org/2000/svg">
<path d="M25.7871 14.554H23.2013C23.6421 14.2993 24.0244 13.9964 24.3334 13.6585C24.6012 13.3647 24.816 13.0455 24.9664 12.7082C25.116 12.3709 25.2015 12.0142 25.2015 11.6538C25.2015 11.414 25.1631 11.1733 25.0833 10.9421C24.9938 10.6844 24.8645 10.4504 24.7039 10.2475C24.4633 9.94305 24.1559 9.70852 23.8154 9.55092C23.475 9.3931 23.1007 9.31189 22.7195 9.31189C22.44 9.31189 22.1568 9.35584 21.881 9.44685C21.4674 9.58235 21.0707 9.82594 20.7361 10.1757C20.401 10.5258 20.1297 10.9804 19.9514 11.5306C19.7187 12.2462 19.0216 13.8689 19.0021 13.9085H18.9358C18.9164 13.8689 18.2192 12.2459 17.9869 11.5306C17.8673 11.1638 17.7079 10.8393 17.5144 10.5604C17.2252 10.1416 16.8606 9.8251 16.4634 9.61831C16.0657 9.41093 15.6377 9.31164 15.2187 9.31189C14.7108 9.31217 14.2141 9.45645 13.7946 9.73408C13.5848 9.87249 13.3943 10.045 13.2342 10.2478C13.0737 10.4507 12.9441 10.6847 12.8549 10.9423C12.7748 11.1734 12.7364 11.414 12.7367 11.6539C12.7367 11.894 12.7745 12.1328 12.8443 12.3651C12.9662 12.7716 13.1837 13.1576 13.4751 13.5095C13.8044 13.9069 14.229 14.2631 14.7324 14.554H12.1511C11.791 14.554 11.5 14.8455 11.5 15.2051V26.6608C11.5 27.0209 11.7912 27.3119 12.1511 27.3119H25.7871C26.147 27.3119 26.4383 27.0207 26.4383 26.6608V15.2051C26.4382 14.8455 26.147 14.554 25.7871 14.554ZM24.7628 21.4442V25.6364H19.6247V21.4442H24.7628ZM19.6247 20.1329V16.2295H24.7628V20.1329H19.6247V20.1329ZM18.3135 21.4442V25.6364H13.1754V21.4442H18.3135ZM13.1754 20.1329V16.2295H18.3135V20.1329H13.1754V20.1329ZM13.9894 12.2563C13.8941 12.0415 13.8505 11.8376 13.8505 11.6536C13.8505 11.5306 13.8691 11.4159 13.9069 11.307L13.9072 11.3065C13.9554 11.1667 14.0235 11.0443 14.1081 10.9376C14.2348 10.777 14.3994 10.6498 14.59 10.5614C14.7811 10.4733 14.9967 10.4249 15.2187 10.4249C15.3816 10.4249 15.5466 10.4507 15.7088 10.5045C15.9518 10.5843 16.1869 10.7259 16.3974 10.9456C16.6071 11.1657 16.7951 11.4662 16.9282 11.8749C17.2921 12.9945 17.6458 13.7371 17.9381 14.2274C17.8976 14.2285 17.8561 14.2291 17.8127 14.2291C17.2 14.2291 16.6407 14.1335 16.1477 13.9716C15.4082 13.7299 14.8183 13.337 14.427 12.9076C14.2306 12.6928 14.0842 12.47 13.9894 12.2563ZM21.3393 11.1933C21.5307 10.9168 21.754 10.7286 21.9896 10.6056C22.2254 10.4823 22.4751 10.4254 22.7195 10.4248C23.0155 10.4248 23.3006 10.5105 23.5295 10.6626C23.6445 10.7384 23.7454 10.8305 23.83 10.9376C23.9147 11.0443 23.9828 11.1667 24.031 11.3065C24.0691 11.4159 24.0877 11.5309 24.0879 11.6536C24.0879 11.7763 24.0685 11.9073 24.0273 12.0452C23.9554 12.2861 23.8151 12.5467 23.6051 12.7996C23.2915 13.1794 22.8233 13.5399 22.2326 13.8018C21.6419 14.064 20.9296 14.2287 20.1254 14.2287C20.0823 14.2287 20.0405 14.2282 20 14.2272C20.2923 13.7368 20.6464 12.9944 21.01 11.8745C21.099 11.6022 21.2118 11.3778 21.3393 11.1933Z" fill="#B8B8C4"/>
</svg>
