<svg width="36" height="36" viewBox="0 0 36 36" fill="none" xmlns="http://www.w3.org/2000/svg">
<path d="M12.1667 26.3333C11.7084 26.3333 11.316 26.1701 10.9896 25.8438C10.6632 25.5174 10.5 25.125 10.5 24.6667V15.2708C10.25 15.1181 10.0486 14.9201 9.89585 14.6771C9.74308 14.434 9.66669 14.1528 9.66669 13.8333V11.3333C9.66669 10.875 9.82988 10.4826 10.1563 10.1563C10.4827 9.82987 10.875 9.66667 11.3334 9.66667H24.6667C25.125 9.66667 25.5174 9.82987 25.8438 10.1563C26.1702 10.4826 26.3334 10.875 26.3334 11.3333V13.8333C26.3334 14.1528 26.257 14.434 26.1042 14.6771C25.9514 14.9201 25.75 15.1181 25.5 15.2708V24.6667C25.5 25.125 25.3368 25.5174 25.0104 25.8438C24.684 26.1701 24.2917 26.3333 23.8334 26.3333H12.1667ZM12.1667 15.5V24.6667H23.8334V15.5H12.1667ZM11.3334 13.8333H24.6667V11.3333H11.3334V13.8333ZM15.5 19.6667H20.5V18H15.5V19.6667Z" fill="#B8B8C4"/>
</svg>
