<svg width="36" height="36" viewBox="0 0 36 36" fill="none" xmlns="http://www.w3.org/2000/svg">
<path d="M16.8331 17.3432C16.4299 17.3407 16.0517 17.2029 15.7486 16.9825C14.7342 17.2755 13.4895 17.6337 12.445 17.9368L9.77016 23.4244C9.7501 23.4619 9.75763 23.512 9.79268 23.552C9.82518 23.5921 9.87775 23.6147 9.92794 23.6121L12.46 23.4744C12.5202 23.4694 12.5802 23.5044 12.6104 23.5546L13.8827 25.7486C13.9078 25.7937 13.9553 25.8237 14.0079 25.8311C14.058 25.8362 14.1056 25.8161 14.1256 25.7786L17.0772 19.9449L18.3883 17.3596L18.3852 17.3594L18.3884 17.3531L16.8331 17.3432Z" fill="#B8B8C4"/>
<path d="M24.7651 17.9167H24.7626C23.7507 17.6187 22.5611 17.2679 21.5867 16.9799C21.2361 17.3306 20.7527 17.3707 20.5498 17.3682L19.3783 17.3596C19.079 17.3558 18.8398 17.3527 18.8398 17.3527L18.8413 17.3557H18.8342L23.0945 25.7786C23.1146 25.8161 23.1621 25.8362 23.2122 25.8311C23.2648 25.8236 23.3124 25.7936 23.3375 25.7485L24.6098 23.5545C24.6398 23.5043 24.7 23.4694 24.7601 23.4743L27.2922 23.612C27.3423 23.6146 27.3949 23.592 27.43 23.5519C27.4625 23.5119 27.4701 23.4618 27.45 23.4243L24.7651 17.9167Z" fill="#B8B8C4"/>
<path d="M12.9461 17.0101C13.6548 16.8053 14.4031 16.588 15.0855 16.3919C15.1268 16.3806 15.1714 16.3676 15.2121 16.3567C15.2119 16.3563 15.2118 16.3559 15.2117 16.3555C15.2137 16.3551 15.2158 16.3545 15.2178 16.3538C15.1301 16.171 15.0825 15.9732 15.0825 15.7703L15.0932 14.3049L15.1082 13.0258L15.1025 13.0362L15.1026 13.0227V13.0202L15.1127 11.545C15.1127 11.4823 15.1176 11.4173 15.1327 11.3546C13.1364 10.7785 10.5342 10.0272 10.131 9.91199C9.9481 9.8595 9.76273 9.83191 9.58497 9.83191C8.94882 9.83191 8.40527 10.185 8.40527 11.054V16.6795C8.40527 17.5486 8.95132 17.8992 9.58497 17.8992C9.76273 17.8992 9.9481 17.8716 10.131 17.8216C10.3939 17.7465 11.5911 17.4008 12.9461 17.0101Z" fill="#B8B8C4"/>
<path d="M28.5668 17.355C28.575 17.3375 28.5835 17.3207 28.5909 17.3022C28.6605 17.1335 28.7027 16.9305 28.7027 16.6795V11.054C28.7027 10.8042 28.6609 10.6017 28.592 10.4332C28.5826 10.4097 28.572 10.3881 28.5615 10.3663C28.5383 10.3189 28.5132 10.2743 28.4849 10.2337C28.4695 10.2114 28.4534 10.1904 28.4367 10.1705C28.4062 10.134 28.3736 10.1007 28.3387 10.0705C28.3247 10.0584 28.3106 10.0467 28.2961 10.0358C28.2496 10.0004 28.2 9.97003 28.1475 9.94446C28.147 9.94414 28.1465 9.94382 28.1461 9.9437C27.9957 9.8706 27.825 9.83191 27.6382 9.83191C27.4705 9.83191 27.2926 9.85946 27.1098 9.91199C26.6941 10.0297 23.9942 10.8262 22.018 11.4097C22.023 11.4698 22.0256 11.5299 22.0256 11.5951L22.0155 12.8299V12.8324L21.9955 15.8204C21.993 16.0006 21.9754 16.1611 21.9429 16.3038C22.6642 16.5166 23.4832 16.7571 24.2597 16.9851H24.2622C25.6246 17.3883 26.8419 17.744 27.1099 17.8216C27.2927 17.8717 27.4706 17.8992 27.6383 17.8992C27.8935 17.8992 28.1207 17.8314 28.3013 17.6922C28.3118 17.6841 28.322 17.6756 28.3323 17.6669C28.3716 17.6336 28.408 17.5966 28.4419 17.5554C28.4555 17.5389 28.4688 17.5217 28.4815 17.5036C28.5134 17.4584 28.5414 17.4084 28.5668 17.355Z" fill="#B8B8C4"/>
<path d="M16.4874 16.3764C16.5976 16.4365 16.7178 16.4715 16.8405 16.4715L17.4967 16.4766L18.3633 16.4841L18.8567 16.4865L19.9362 16.4941L20.5549 16.4991C20.7001 16.4991 20.8003 16.4516 20.8654 16.3764C20.9405 16.2888 20.9756 16.161 20.9906 16.0232C20.9981 15.9555 21.0007 15.8829 21.0007 15.813L21.0142 13.9812L21.0237 13.0985L21.0207 13.1V13.0929L21.0307 11.7003V11.5875C21.0307 11.4779 21.0249 11.3944 21.0039 11.3305C21.0033 11.3278 21.0032 11.3233 21.0025 11.3207L21.0019 11.3209C21.0013 11.319 21.0013 11.3164 21.0006 11.3147C20.9581 11.1919 20.8504 11.1468 20.5949 11.1443L20.2618 11.1418L17.0233 11.1192H16.8781C16.6201 11.1167 16.3696 11.1594 16.2268 11.282C16.1517 11.3472 16.1041 11.4373 16.1041 11.5525V11.6377L16.0941 13.0352L16.074 15.7777C16.074 15.8779 16.1065 15.9831 16.1667 16.0783C16.242 16.1985 16.3546 16.3063 16.4874 16.3764Z" fill="#B8B8C4"/>
</svg>
