<svg width="36" height="36" viewBox="0 0 36 36" fill="none" xmlns="http://www.w3.org/2000/svg">
<path d="M10.5 24.6667C10.2639 24.6667 10.066 24.5868 9.90627 24.4271C9.74655 24.2674 9.66669 24.0694 9.66669 23.8333C9.66669 23.6944 9.69446 23.566 9.75002 23.4479C9.80558 23.3299 9.88891 23.2361 10 23.1667L17.1667 17.7917V16.3333C17.1667 16.0972 17.25 15.8993 17.4167 15.7396C17.5834 15.5799 17.7847 15.5 18.0209 15.5C18.3681 15.5 18.6597 15.375 18.8959 15.125C19.132 14.875 19.25 14.5764 19.25 14.2292C19.25 13.8819 19.1285 13.5903 18.8854 13.3542C18.6424 13.118 18.3472 13 18 13C17.6528 13 17.3577 13.1215 17.1146 13.3646C16.8715 13.6076 16.75 13.9028 16.75 14.25H15.0834C15.0834 13.4444 15.3681 12.7569 15.9375 12.1875C16.507 11.618 17.1945 11.3333 18 11.3333C18.8056 11.3333 19.4931 11.6146 20.0625 12.1771C20.632 12.7396 20.9167 13.4236 20.9167 14.2292C20.9167 14.8819 20.7257 15.4653 20.3438 15.9792C19.9618 16.493 19.4584 16.8472 18.8334 17.0417V17.7917L26 23.1667C26.1111 23.2361 26.1945 23.3299 26.25 23.4479C26.3056 23.566 26.3334 23.6944 26.3334 23.8333C26.3334 24.0694 26.2535 24.2674 26.0938 24.4271C25.9341 24.5868 25.7361 24.6667 25.5 24.6667H10.5ZM13 23H23L18 19.25L13 23Z" fill="#B8B8C4"/>
</svg>
