<svg width="36" height="36" viewBox="0 0 36 36" fill="none" xmlns="http://www.w3.org/2000/svg">
<path d="M13 19.6667C12.5416 19.6667 12.1493 19.5035 11.8229 19.1771C11.4965 18.8507 11.3333 18.4583 11.3333 18C11.3333 17.5417 11.4965 17.1493 11.8229 16.8229C12.1493 16.4965 12.5416 16.3333 13 16.3333C13.4583 16.3333 13.8507 16.4965 14.1771 16.8229C14.5035 17.1493 14.6666 17.5417 14.6666 18C14.6666 18.4583 14.5035 18.8507 14.1771 19.1771C13.8507 19.5035 13.4583 19.6667 13 19.6667ZM18 19.6667C17.5416 19.6667 17.1493 19.5035 16.8229 19.1771C16.4965 18.8507 16.3333 18.4583 16.3333 18C16.3333 17.5417 16.4965 17.1493 16.8229 16.8229C17.1493 16.4965 17.5416 16.3333 18 16.3333C18.4583 16.3333 18.8507 16.4965 19.1771 16.8229C19.5035 17.1493 19.6666 17.5417 19.6666 18C19.6666 18.4583 19.5035 18.8507 19.1771 19.1771C18.8507 19.5035 18.4583 19.6667 18 19.6667ZM23 19.6667C22.5416 19.6667 22.1493 19.5035 21.8229 19.1771C21.4965 18.8507 21.3333 18.4583 21.3333 18C21.3333 17.5417 21.4965 17.1493 21.8229 16.8229C22.1493 16.4965 22.5416 16.3333 23 16.3333C23.4583 16.3333 23.8507 16.4965 24.1771 16.8229C24.5035 17.1493 24.6666 17.5417 24.6666 18C24.6666 18.4583 24.5035 18.8507 24.1771 19.1771C23.8507 19.5035 23.4583 19.6667 23 19.6667Z" fill="#B8B8C4"/>
</svg>
