<svg width="36" height="36" viewBox="0 0 36 36" fill="none" xmlns="http://www.w3.org/2000/svg">
<path d="M13.8334 27.1667C13.375 27.1667 12.9827 27.0035 12.6563 26.6771C12.3299 26.3507 12.1667 25.9583 12.1667 25.5V10.5C12.1667 10.0417 12.3299 9.64929 12.6563 9.32291C12.9827 8.99652 13.375 8.83332 13.8334 8.83332H22.1667C22.625 8.83332 23.0174 8.99652 23.3438 9.32291C23.6702 9.64929 23.8334 10.0417 23.8334 10.5V13.0833C24.0834 13.1805 24.2847 13.3333 24.4375 13.5417C24.5903 13.75 24.6667 13.9861 24.6667 14.25V15.9167C24.6667 16.1805 24.5903 16.4167 24.4375 16.625C24.2847 16.8333 24.0834 16.9861 23.8334 17.0833V25.5C23.8334 25.9583 23.6702 26.3507 23.3438 26.6771C23.0174 27.0035 22.625 27.1667 22.1667 27.1667H13.8334ZM13.8334 25.5H22.1667V10.5H13.8334V25.5ZM18 13C18 13 18.059 13 18.1771 13C18.2952 13 18.434 12.9201 18.5938 12.7604C18.7535 12.6007 18.8334 12.4028 18.8334 12.1667C18.8334 11.9305 18.7535 11.7326 18.5938 11.5729C18.434 11.4132 18.2361 11.3333 18 11.3333C17.7639 11.3333 17.566 11.4132 17.4063 11.5729C17.2465 11.7326 17.1667 11.9305 17.1667 12.1667C17.1667 12.4028 17.2465 12.6007 17.4063 12.7604C17.566 12.9201 17.7639 13 18 13Z" fill="#B8B8C4"/>
</svg>
