<svg width="193" height="58" viewBox="0 0 193 58" fill="none" xmlns="http://www.w3.org/2000/svg">
<path d="M181.899 0C181.899 11.9857 179.379 15.5045 170.797 15.5045C179.379 15.5045 181.899 19.0237 181.899 31.0092C181.899 19.0237 184.418 15.5045 193 15.5045C184.418 15.5045 181.899 11.9857 181.899 0Z" fill="#D6BF98"/>
<path d="M151.688 45.8387L161.624 35.0265L155.438 25.6267H159.627L164.01 32.4939L170.147 25.6267H174.433L165.861 35.0752L172.923 45.8387H168.734L163.377 37.6078L155.974 45.8387H151.688Z" fill="black"/>
<path d="M147.607 28.5002L147.948 25.6267H151.455L148.971 45.8387H145.464L145.805 43.0139C145.172 43.8906 144.295 44.8159 143.273 45.4004C141.812 46.2284 140.302 46.4232 139.084 46.4232C136.649 46.4232 134.409 45.9361 132.509 43.9393C130.999 42.3321 129.879 40.043 129.879 36.7311C129.879 32.5913 131.486 29.5717 133.386 27.7697C135.285 25.9676 137.623 25.1397 140.643 25.1397C142.006 25.1397 143.468 25.3345 144.929 26.1138C146.146 26.7469 146.974 27.5262 147.607 28.5002ZM140.935 28.2567C138.695 28.2567 137.087 29.1821 136.065 30.1562C134.555 31.5686 133.483 34.0037 133.483 36.4876C133.483 38.4845 134.214 40.53 135.578 41.7963C136.795 42.9652 138.256 43.3061 139.669 43.3061C141.86 43.3061 143.516 42.5756 144.685 41.3093C146.146 39.7995 146.974 37.2182 146.974 34.7343C146.974 32.0069 145.757 30.4971 145.075 29.8639C144.247 29.0847 142.932 28.2567 140.935 28.2567Z" fill="black"/>
<path d="M128.668 28.8411H125.161L123.067 45.8387H119.56L121.655 28.8411H119.512L119.901 25.6267H122.044L122.921 18.3212H126.428L125.551 25.6267H129.058L128.668 28.8411Z" fill="black"/>
<path d="M91.9322 10.3338H95.4389L92.6141 33.1271L100.942 25.6267H105.521L95.6824 34.2959L104.498 45.8387H100.017L93.0524 36.6337L92.0783 37.5104L91.0555 45.8387H87.5489L91.9322 10.3338Z" fill="black"/>
<path d="M73.1376 45.8387L75.6215 25.6267H79.1281L78.8359 27.8184C79.2255 27.1852 79.8587 26.4547 80.8815 25.8702C81.8555 25.3345 82.7322 25.1397 83.8037 25.1397C85.0213 25.1397 85.9466 25.4319 86.7746 25.9676L84.729 29.1334C84.3394 28.8412 83.7063 28.4515 82.6348 28.4515C81.6607 28.4515 80.7353 28.7437 79.9561 29.523C78.5437 30.8867 78.2028 33.1758 77.9592 35.1726L76.6442 45.8387H73.1376Z" fill="black"/>
<path d="M66.1086 28.5002L66.4495 25.6267H69.9562L67.4723 45.8387H63.9657L64.3066 43.0139C63.6734 43.8906 62.7968 44.8159 61.774 45.4004C60.3129 46.2284 58.8031 46.4232 57.5855 46.4232C55.1503 46.4232 52.9099 45.9361 51.0105 43.9393C49.5007 42.3321 48.3805 40.043 48.3805 36.7311C48.3805 32.5913 49.9877 29.5717 51.8872 27.7697C53.7866 25.9676 56.1244 25.1397 59.144 25.1397C60.5077 25.1397 61.9688 25.3345 63.4299 26.1138C64.6475 26.7469 65.4755 27.5262 66.1086 28.5002ZM59.4362 28.2567C57.1958 28.2567 55.5886 29.1821 54.5659 30.1562C53.056 31.5686 51.9846 34.0037 51.9846 36.4876C51.9846 38.4845 52.7151 40.53 54.0788 41.7963C55.2964 42.9652 56.7575 43.3061 58.1699 43.3061C60.3616 43.3061 62.0175 42.5756 63.1864 41.3093C64.6475 39.7995 65.4755 37.2182 65.4755 34.7343C65.4755 32.0069 64.2579 30.4971 63.576 29.8639C62.7481 29.0847 61.4331 28.2567 59.4362 28.2567Z" fill="black"/>
<path d="M27.9581 43.0139L26.2048 57.0406H22.6981L26.5944 25.6267H30.1011L29.7601 28.4515C30.6855 27.2339 31.757 26.5034 32.585 26.065C33.9487 25.3345 35.2637 25.1397 36.7248 25.1397C38.4781 25.1397 41.0107 25.4806 43.0562 27.4775C44.6148 28.9873 45.6862 31.1789 45.6862 34.4421C45.6862 38.2897 44.2738 41.6989 42.1309 43.7932C39.8905 45.9848 37.4066 46.4232 34.874 46.4232C33.559 46.4232 31.8057 46.2771 30.2472 45.303C29.3218 44.7185 28.4939 43.8419 27.9581 43.0139ZM34.7766 43.3061C36.4325 43.3061 37.9911 42.8678 39.3548 41.6015C41.2055 39.8969 42.0822 37.1695 42.0822 34.6856C42.0822 32.2504 41.1081 30.7406 40.3288 29.9613C39.4522 29.036 38.0398 28.2567 35.8481 28.2567C33.6564 28.2567 32.0979 29.036 30.8316 30.3997C29.3705 31.9582 28.5913 34.1986 28.5913 36.5363C28.5913 38.0948 28.9322 39.8482 30.2472 41.358C31.5135 42.7704 33.072 43.3061 34.7766 43.3061Z" fill="black"/>
<path d="M21.5757 17.8828L18.5074 19.7823C18.1177 18.6621 17.4359 17.8341 16.7053 17.2497C15.4878 16.3243 14.1728 16.2269 13.0526 16.2269C11.835 16.2269 10.2765 16.4217 8.96147 17.5906C7.9874 18.4673 7.25684 19.9284 7.25684 21.4382C7.25684 22.461 7.64647 23.5324 8.62054 24.4091C9.25369 24.9935 10.6661 25.7728 11.3479 26.1137L14.2702 27.4774C15.78 28.1593 17.2411 29.0359 18.41 30.2535C20.2607 32.153 20.6016 33.8576 20.6016 35.9519C20.6016 37.8513 20.2607 40.8222 17.8742 43.3061C15.1468 46.1309 11.7376 46.4231 9.4485 46.4231C6.81851 46.4231 4.67555 45.9361 2.7274 43.988C1.315 42.5269 0.243518 40.3839 0 38.0461L3.60407 37.072C3.70148 38.728 4.33462 40.2378 5.3574 41.3093C6.7698 42.7704 8.37702 43.0139 9.98424 43.0139C11.5428 43.0139 13.5396 42.7704 15.0494 41.2119C16.267 39.9456 16.8028 38.0461 16.8028 36.4876C16.8028 34.5395 15.9261 33.1271 15.0494 32.3478C14.4163 31.7634 12.9065 30.8867 11.8837 30.3997L9.30239 29.1821C8.42573 28.7924 6.52629 27.8184 5.45481 26.6982C4.57814 25.7728 3.60407 24.2143 3.60407 21.6817C3.60407 19.3926 4.28592 17.3471 6.13666 15.545C8.18221 13.5482 10.5687 12.8176 13.2961 12.8176C14.7085 12.8176 16.9002 13.0125 18.6535 14.1813C19.9198 15.0093 20.9913 16.373 21.5757 17.8828Z" fill="black"/>
</svg>
